<svg width="24" height="24" viewBox="0 0 24 24" fill="none" xmlns="http://www.w3.org/2000/svg">
<path d="M10 2L10.4172 1.37675C10.1871 1.22274 9.89094 1.20801 9.64673 1.33841C9.40251 1.46882 9.25 1.72315 9.25 2H10ZM9 9.98438L8.74997 9.27728C8.45033 9.38323 8.25 9.66655 8.25 9.98438H9ZM6 20.7422H5.25V20.7422H6ZM6 9.98438H6.75C6.75 9.66655 6.54967 9.38323 6.25003 9.27728L6 9.98438ZM5 2H5.75C5.75 1.72315 5.59749 1.46882 5.35327 1.33841C5.10906 1.20801 4.81287 1.22274 4.5828 1.37675L5 2ZM5 3.74219H4.25V3.74219H5ZM10 3.74219H10.75V3.74219H10ZM10 2L9.5828 2.62325C10.5897 3.29724 11.25 4.44275 11.25 5.74219H12H12.75C12.75 3.92123 11.8223 2.31728 10.4172 1.37675L10 2ZM12 5.74219H11.25C11.25 7.37317 10.2077 8.76184 8.74997 9.27728L9 9.98438L9.25003 10.6915C11.2873 9.97109 12.75 8.02945 12.75 5.74219H12ZM9 9.98438H8.25V20.7422H9H9.75V9.98438H9ZM9 20.7422H8.25C8.25 21.1564 7.91421 21.4922 7.5 21.4922V22.2422V22.9922C8.74264 22.9922 9.75 21.9848 9.75 20.7422H9ZM7.5 22.2422V21.4922C7.08579 21.4922 6.75 21.1564 6.75 20.7422H6H5.25C5.25 21.9848 6.25736 22.9922 7.5 22.9922V22.2422ZM6 20.7422H6.75V9.98438H6H5.25V20.7422H6ZM6 9.98438L6.25003 9.27728C4.79233 8.76184 3.75 7.37317 3.75 5.74219H3H2.25C2.25 8.02945 3.71267 9.97109 5.74997 10.6915L6 9.98438ZM3 5.74219H3.75C3.75 4.44275 4.41032 3.29724 5.4172 2.62325L5 2L4.5828 1.37675C3.17773 2.31728 2.25 3.92123 2.25 5.74219H3ZM5 2H4.25V3.74219H5H5.75V2H5ZM5 3.74219H4.25C4.25 5.53711 5.70507 6.99219 7.5 6.99219V6.24219V5.49219C6.5335 5.49219 5.75 4.70869 5.75 3.74219H5ZM7.5 6.24219V6.99219C9.29493 6.99219 10.75 5.53711 10.75 3.74219H10H9.25C9.25 4.70869 8.4665 5.49219 7.5 5.49219V6.24219ZM10 3.74219H10.75V2H10H9.25V3.74219H10Z" fill="white"/>
<path d="M19 6.49609L18.549 5.89686L18.25 6.12189V6.49609H19ZM19 11.5L19.7115 11.7372L19.75 11.6217V11.5H19ZM18.999 11.5029L18.2875 11.2658L18.1168 11.778L18.5483 12.1024L18.999 11.5029ZM20 13.5H20.75V13.5H20ZM20 19.5H20.75V19.5H20ZM15 19.5H14.25V19.5H15ZM15 13.5H14.25V13.5H15ZM16 11.5029L16.4509 12.1023L16.75 11.8772V11.5029H16ZM16 6.49609H16.75V6.12189L16.451 5.89686L16 6.49609ZM15 2V1.25H14.25V2H15ZM20 2H20.75V1.25H20V2ZM20 4.5H19.25C19.25 5.06933 18.9767 5.57494 18.549 5.89686L19 6.49609L19.451 7.09533C20.2355 6.50486 20.75 5.56472 20.75 4.5H20ZM19 6.49609H18.25V11.5H19H19.75V6.49609H19ZM19 11.5L18.2885 11.2628L18.2875 11.2658L18.999 11.5029L19.7105 11.7401L19.7115 11.7372L19 11.5ZM18.999 11.5029L18.5483 12.1024C18.9764 12.4242 19.25 12.9302 19.25 13.5H20H20.75C20.75 12.4348 20.2351 11.4939 19.4497 10.9035L18.999 11.5029ZM20 13.5H19.25V19.5H20H20.75V13.5H20ZM20 19.5H19.25C19.25 20.4665 18.4665 21.25 17.5 21.25V22V22.75C19.2949 22.75 20.75 21.2949 20.75 19.5H20ZM17.5 22V21.25C16.5335 21.25 15.75 20.4665 15.75 19.5H15H14.25C14.25 21.2949 15.7051 22.75 17.5 22.75V22ZM15 19.5H15.75V13.5H15H14.25V19.5H15ZM15 13.5H15.75C15.75 12.93 16.0234 12.4239 16.4509 12.1023L16 11.5029L15.5491 10.9036C14.7639 11.4943 14.25 12.4355 14.25 13.5H15ZM16 11.5029H16.75V6.49609H16H15.25V11.5029H16ZM16 6.49609L16.451 5.89686C16.0233 5.57494 15.75 5.06933 15.75 4.5H15H14.25C14.25 5.56472 14.7645 6.50486 15.549 7.09533L16 6.49609ZM15 4.5H15.75V2H15H14.25V4.5H15ZM15 2V2.75H20V2V1.25H15V2ZM20 2H19.25V4.5H20H20.75V2H20Z" fill="white"/>
</svg>
